# xmcd
#
# Track frame offsets: 
#        150
#        17360
#        32797
#        48102
#        69042
#        92285
#        113562
#        135997
#        156765
#        183107
#        204945
#        221090
#        227330
#
# Disc length: 3238 seconds
#
# Revision: 1
# Processed by: cddbd v1.5.2PL0 Copyright (c) Steve Scherf et al.
# Submitted via: ExactAudioCopy v1.0b3
#
DISCID=8b0ca40d
DTITLE=John 'Broadway' Tucker - Mississippi To Monterey
DYEAR=1999
DGENRE=Blues
TTITLE0=Born Lover
TTITLE1=That's Alright Mama
TTITLE2=It Hurts Me Too
TTITLE3=Somebody Have Mercy
TTITLE4=You Can't Spend What You Ain't Got
TTITLE5=Must Be The Blues
TTITLE6=Since I Fell
TTITLE7=Home At Last
TTITLE8=Leavin' Home Blues
TTITLE9=Ain't That Good News
TTITLE10=Unwanted Child
TTITLE11=Guitar Talk
TTITLE12=Steal Away
EXTD=
EXTT0=
EXTT1=
EXTT2=
EXTT3=
EXTT4=
EXTT5=
EXTT6=
EXTT7=
EXTT8=
EXTT9=
EXTT10=
EXTT11=
EXTT12=
PLAYORDER=
